<svg xmlns="http://www.w3.org/2000/svg" width="760" height="430" viewBox="0 0 760 430"><rect width="100%" height="100%" fill="white"/><text x="78" y="25" font-family="sans-serif" font-size="16">Local geometric compatibility: equal-sample median</text><line x1="78" y1="372" x2="735" y2="372" stroke="#333"/><line x1="78" y1="45" x2="78" y2="372" stroke="#333"/><text x="380.0" y="418" text-anchor="middle" font-family="sans-serif" font-size="12">Clearance factor k</text><text x="18" y="215.0" transform="rotate(-90 18 215.0)" text-anchor="middle" font-family="sans-serif" font-size="12">C(k); cultured width midpoint</text><polyline points="78.0,338.8 94.4,339.8 110.9,342.3 127.3,343.2 143.7,343.9 160.1,344.7 176.6,346.3 193.0,346.8 209.4,347.5 225.8,348.3 242.2,348.6 258.7,349.9 275.1,353.2 291.5,355.3 307.9,358.4 324.4,361.4 340.8,363.0 357.2,363.7 373.6,363.8 390.1,364.0 406.5,364.0 422.9,364.4 439.4,364.5 455.8,364.7 472.2,364.9 488.6,365.2 505.0,365.4 521.5,365.5 537.9,365.7 554.3,365.9 570.8,366.0 587.2,366.1 603.6,366.2 620.0,366.4 636.5,366.5 652.9,366.7 669.3,368.2 685.7,368.5 702.1,369.6 718.6,371.9 735.0,372.0" fill="none" stroke="#5b6c99" stroke-width="1.5"/><text x="86" y="48" font-family="sans-serif" font-size="11" fill="#5b6c99">granite midpoint width</text><polyline points="78.0,60.0 94.4,61.6 110.9,63.1 127.3,64.9 143.7,66.5 160.1,68.4 176.6,70.2 193.0,72.0 209.4,74.0 225.8,75.9 242.2,77.9 258.7,79.9 275.1,81.9 291.5,84.1 307.9,86.1 324.4,88.2 340.8,90.3 357.2,92.5 373.6,94.7 390.1,96.9 406.5,99.1 422.9,101.4 439.4,103.7 455.8,106.0 472.2,108.3 488.6,110.6 505.0,113.0 521.5,115.3 537.9,117.7 554.3,120.2 570.8,122.5 587.2,124.9 603.6,127.3 620.0,129.7 636.5,132.3 652.9,134.5 669.3,137.1 685.7,139.5 702.1,142.0 718.6,144.6 735.0,146.9" fill="none" stroke="#d06f4c" stroke-width="1.5"/><text x="86" y="62" font-family="sans-serif" font-size="11" fill="#d06f4c">sandstone midpoint width</text></svg>
